<svg width="80" height="26" viewBox="0 0 80 26" fill="none" xmlns="http://www.w3.org/2000/svg">
<path d="M19.6924 3.22705C19.6924 4.43892 19.6943 5.20069 19.7412 5.7749C19.7856 6.31774 19.8577 6.47636 19.8799 6.52002C20.0451 6.84424 20.3096 7.10873 20.6338 7.27393C20.6774 7.29606 20.8359 7.36823 21.3789 7.4126C21.9531 7.45946 22.7149 7.46143 23.9268 7.46143H24.6152V12.3843H23.9268C22.7957 12.3843 21.7987 12.3869 20.9775 12.3198C20.5355 12.2837 20.0861 12.2227 19.6367 12.1128C19.6716 12.4038 19.6924 12.7001 19.6924 13.0005C19.6921 17.0787 16.3859 20.3843 12.3076 20.3843C11.4226 20.3843 10.5745 20.2274 9.78809 19.9419C9.84587 20.7399 9.8457 21.6956 9.8457 22.7729V23.4614H4.92285V22.7729C4.92285 21.5611 4.92089 20.7993 4.87402 20.2251C4.82965 19.682 4.75748 19.5236 4.73535 19.48C4.57022 19.1559 4.30646 18.8913 3.98242 18.7261C3.93919 18.7041 3.78041 18.6319 3.23633 18.5874C2.66213 18.5405 1.90027 18.5386 0.688477 18.5386H0V13.6157H0.688477C1.81966 13.6157 2.81739 13.6131 3.63867 13.6802C4.08016 13.7163 4.52874 13.7765 4.97754 13.8862C4.94279 13.5958 4.92287 13.3003 4.92285 13.0005C4.92285 8.9221 8.22924 5.61576 12.3076 5.61572C13.1922 5.61572 14.0401 5.77193 14.8262 6.05713C14.7685 5.25929 14.7695 4.30394 14.7695 3.22705V2.53857H19.6924V3.22705ZM12.3076 10.5386C10.9482 10.5386 9.8457 11.641 9.8457 13.0005C9.84597 14.3597 10.9483 15.4614 12.3076 15.4614C13.6669 15.4614 14.7693 14.3597 14.7695 13.0005C14.7695 11.641 13.6671 10.5386 12.3076 10.5386Z" fill="url(#paint0_linear_93_855)"/>
<path d="M73.5678 18.4275C74.3165 18.4275 74.861 18.0792 75.2014 17.3827C75.3375 17.0769 75.4056 16.7626 75.4056 16.4399C75.4056 15.6415 75.0823 15.0554 74.4356 14.6816C74.1634 14.5287 73.8741 14.4523 73.5678 14.4523C72.8191 14.4523 72.2745 14.8006 71.9342 15.4971C71.7981 15.8028 71.73 16.1171 71.73 16.4399C71.73 17.2383 72.0533 17.8244 72.6999 18.1981C72.9722 18.351 73.2615 18.4275 73.5678 18.4275ZM73.5678 11.5474C75.2014 11.5474 76.5117 12.142 77.4986 13.3311C78.2474 14.2315 78.6217 15.2677 78.6217 16.4399C78.6217 18.0197 78.0091 19.2853 76.7839 20.2367C75.848 20.9671 74.776 21.3324 73.5678 21.3324C71.9342 21.3324 70.6239 20.7378 69.6369 19.5487C68.8882 18.6483 68.5138 17.612 68.5138 16.4399C68.5138 14.86 69.1264 13.5944 70.3516 12.6431C71.2876 11.9126 72.3596 11.5474 73.5678 11.5474ZM78.1623 1.30371V4.36152H80.0001V7.26644H78.1623V10.4771H74.9461V1.30371H78.1623ZM64.0725 1.30371H73.2615V7.11355H67.2887C67.3227 7.50427 67.5269 7.70813 67.9013 7.72512H73.2615V10.4771H67.1355C65.3488 10.4771 64.3448 9.75516 64.1236 8.3112C64.0895 8.07337 64.0725 7.82704 64.0725 7.57223V4.6673H70.0453V4.05574H64.0725V1.30371Z" fill="#20E988"/>
<path d="M53.3961 1.30371H56.6122V10.4771H53.3961V7.26644H51.5583V4.36152H53.3961V1.30371ZM58.2969 10.4771V1.30371H61.513V10.4771H58.2969ZM51.7114 4.20863H48.725V6.50199C48.7591 7.19849 49.0654 7.55524 49.6439 7.57223H51.7114V10.4771H49.7971C48.5038 10.4602 47.6104 10.1034 47.1169 9.40691C46.5894 10.1204 45.6961 10.4771 44.4368 10.4771H42.5225V7.57223H44.59C45.1856 7.53825 45.4919 7.1815 45.5089 6.50199V4.20863H42.5225V1.30371H51.7114V4.20863Z" fill="#20E988"/>
<path d="M33.7557 14.6054H30.7693V11.7005H39.9583V14.6054H36.9718V16.1343C38.7416 16.2363 39.72 17.0772 39.9072 18.657C39.9412 18.8779 39.9583 19.1072 39.9583 19.345V25.3078H36.7421V20.1095C36.7081 19.413 36.4018 19.0562 35.8232 19.0393H30.7693V16.1343H33.7557V14.6054ZM39.9583 4.82043H36.9718V6.50222C37.0059 7.19873 37.3122 7.55547 37.8907 7.57246H39.9583V10.4774H38.0439C36.7506 10.4604 35.8573 10.1036 35.3638 9.40715C34.8363 10.1206 33.9429 10.4774 32.6837 10.4774H30.7693V7.57246H32.8368C33.4324 7.53848 33.7387 7.18174 33.7557 6.50222V4.82043H30.7693V1.91551H33.7557V0.692383H36.9718V1.91551H39.9583V4.82043Z" fill="#20E988"/>
<defs>
<linearGradient id="paint0_linear_93_855" x1="6.15384" y1="7.46165" x2="22.1538" y2="67.154" gradientUnits="userSpaceOnUse">
<stop stop-color="#20E988"/>
<stop offset="1" stop-color="#DAFBEB"/>
</linearGradient>
</defs>
</svg>
