<svg width="24" height="25" viewBox="0 0 24 25" fill="none" xmlns="http://www.w3.org/2000/svg">
<path fill-rule="evenodd" clip-rule="evenodd" d="M6.14853 6.65C4.88568 7.91429 4.14139 9.84 4.14139 12.5C4.14139 15.16 4.88568 17.0857 6.14853 18.35C7.41282 19.6129 9.33853 20.3571 11.9985 20.3571C15.3771 20.3571 17.5914 19.1629 18.7728 17.1486C18.921 16.9128 19.1553 16.7439 19.4259 16.6779C19.6965 16.6118 19.9821 16.6537 20.2223 16.7947C20.4625 16.9357 20.6384 17.1648 20.7126 17.4332C20.7868 17.7017 20.7536 17.9885 20.62 18.2329C18.9514 21.0786 15.91 22.5 11.9985 22.5C8.94425 22.5 6.40711 21.6371 4.63425 19.8643C2.86139 18.0929 1.99854 15.5543 1.99854 12.5C1.99854 9.44571 2.86139 6.90857 4.63425 5.13571C6.40568 3.36286 8.94425 2.5 11.9985 2.5H12.0071C12.4642 2.50429 13.6414 2.54286 14.3642 2.70571C14.5051 2.73285 14.639 2.78799 14.7582 2.86786C14.8773 2.94773 14.9792 3.0507 15.0577 3.17068C15.1363 3.29065 15.19 3.42518 15.2157 3.56629C15.2413 3.70741 15.2383 3.85223 15.207 3.99218C15.1756 4.13212 15.1164 4.26435 15.033 4.38101C14.9496 4.49767 14.8436 4.5964 14.7213 4.67134C14.599 4.74627 14.4629 4.79589 14.3211 4.81726C14.1793 4.83862 14.0346 4.8313 13.8957 4.79571C13.4242 4.69 12.4614 4.64714 11.9942 4.64286C9.33711 4.64286 7.41139 5.38857 6.14853 6.65ZM17.8714 4.19857C17.7457 4.13526 17.6088 4.09732 17.4684 4.08692C17.3281 4.07653 17.187 4.09388 17.0534 4.13799C16.9197 4.18209 16.7961 4.25209 16.6895 4.34399C16.5829 4.43589 16.4954 4.54788 16.4321 4.67357C16.3688 4.79927 16.3309 4.9362 16.3205 5.07656C16.3101 5.21691 16.3274 5.35794 16.3715 5.49159C16.4156 5.62524 16.4856 5.74889 16.5775 5.85549C16.6694 5.96209 16.7814 6.04954 16.9071 6.11286C17.5957 6.46143 18.1514 6.93524 18.5742 7.53429C18.7394 7.76372 18.9886 7.91856 19.2675 7.96506C19.5464 8.01157 19.8323 7.94596 20.063 7.78254C20.2938 7.61912 20.4505 7.37114 20.4992 7.09263C20.5478 6.81413 20.4844 6.52768 20.3228 6.29571C19.6926 5.40383 18.8501 4.68307 17.8714 4.19857ZM19.7142 14.1543C19.6911 14.2931 19.6955 14.4351 19.7272 14.5723C19.7589 14.7094 19.8173 14.8389 19.8991 14.9535C19.9809 15.068 20.0844 15.1653 20.2038 15.2399C20.3232 15.3144 20.4561 15.3647 20.595 15.3879C20.8753 15.4346 21.1628 15.3681 21.3941 15.203C21.6255 15.0378 21.7817 14.7875 21.8285 14.5071C21.9359 13.8436 21.988 13.1722 21.9842 12.5C21.9842 11.799 21.9319 11.13 21.8271 10.4929C21.8039 10.354 21.7537 10.2211 21.6791 10.1017C21.6046 9.98234 21.5073 9.8788 21.3927 9.79702C21.2782 9.71524 21.1486 9.65682 21.0115 9.6251C20.8744 9.59338 20.7324 9.58897 20.5935 9.61214C20.4547 9.63531 20.3218 9.6856 20.2024 9.76013C20.083 9.83466 19.9795 9.93198 19.8977 10.0465C19.7325 10.2779 19.666 10.5653 19.7128 10.8457C19.7985 11.3533 19.8414 11.9048 19.8414 12.5C19.8414 13.0952 19.7985 13.6467 19.7128 14.1543H19.7142ZM13.07 9.28571C13.07 9.00155 12.9571 8.72903 12.7561 8.5281C12.5552 8.32717 12.2827 8.21429 11.9985 8.21429C11.7144 8.21429 11.4419 8.32717 11.2409 8.5281C11.04 8.72903 10.9271 9.00155 10.9271 9.28571V12.8571C10.9271 13.1143 11.0185 13.36 11.1842 13.5543L14.13 16.9871C14.315 17.2029 14.5783 17.3363 14.8617 17.358C15.0021 17.3688 15.1432 17.3518 15.2769 17.308C15.4107 17.2642 15.5346 17.1945 15.6414 17.1029C15.7482 17.0112 15.836 16.8994 15.8996 16.7739C15.9632 16.6483 16.0015 16.5115 16.0123 16.3711C16.023 16.2308 16.006 16.0897 15.9622 15.9559C15.9185 15.8221 15.8487 15.6983 15.7571 15.5914L13.07 12.46V9.28571Z" fill="#92949D"/>
</svg>
