<svg width="149" height="127" viewBox="0 0 149 127" fill="none" xmlns="http://www.w3.org/2000/svg">
<path d="M118.893 4.1582C118.893 11.4763 118.907 16.075 119.19 19.542C119.459 22.8268 119.893 23.78 120.025 24.041C121.023 25.9984 122.618 27.5935 124.575 28.5908C124.837 28.7237 125.79 29.1575 129.074 29.4258C132.541 29.7089 137.14 29.7227 144.458 29.7227H148.616V59.4463H144.458C137.629 59.4463 131.609 59.4588 126.65 59.0537C123.987 58.8361 121.279 58.4758 118.571 57.8145C118.781 59.5676 118.893 61.3516 118.893 63.1611C118.893 87.7845 98.931 107.746 74.3076 107.746C68.9701 107.746 63.852 106.807 59.1084 105.087C59.4561 109.902 59.4463 115.666 59.4463 122.163V126.321H29.7227V122.163C29.7227 114.845 29.7089 110.246 29.4258 106.779C29.1574 103.495 28.7236 102.541 28.5908 102.28C27.5934 100.323 25.9984 98.7278 24.041 97.7305C23.7798 97.5976 22.8263 97.1648 19.542 96.8965C16.0749 96.6134 11.4763 96.5986 4.1582 96.5986H0V66.875H4.1582C10.9877 66.875 17.0074 66.8625 21.9658 67.2676C24.6291 67.4852 27.3356 67.8458 30.043 68.5068C29.8335 66.7541 29.7236 64.9703 29.7236 63.1611C29.7237 38.5379 49.6844 18.5772 74.3076 18.5771C79.6447 18.5771 84.7626 19.5156 89.5059 21.2354C89.1581 16.4203 89.1699 10.6558 89.1699 4.1582V0H118.893V4.1582ZM74.3076 48.2998C66.1 48.2999 59.4464 54.9535 59.4463 63.1611C59.4463 71.3689 66.0999 78.0224 74.3076 78.0225C82.5154 78.0225 89.1689 71.3689 89.1689 63.1611C89.1688 54.9534 82.5154 48.2998 74.3076 48.2998Z" fill="url(#paint0_linear_153_1616)"/>
<defs>
<linearGradient id="paint0_linear_153_1616" x1="37.154" y1="29.7227" x2="133.751" y2="390.111" gradientUnits="userSpaceOnUse">
<stop stop-color="#20E988"/>
<stop offset="1" stop-color="#DAFBEB"/>
</linearGradient>
</defs>
</svg>
